<?xml version="1.0" standalone="no"?>
<!DOCTYPE svg PUBLIC "-//W3C//DTD SVG 20010904//EN"
 "http://www.w3.org/TR/2001/REC-SVG-20010904/DTD/svg10.dtd">
<svg version="1.0" xmlns="http://www.w3.org/2000/svg"
 width="1084.000000pt" height="1084.000000pt" viewBox="0 0 1084.000000 1084.000000"
 preserveAspectRatio="xMidYMid meet">
<metadata>
Created by potrace 1.14, written by Peter Selinger 2001-2017
</metadata>
<g transform="translate(0.000000,1084.000000) scale(0.100000,-0.100000)"
fill="#000000" stroke="none">
<path d="M10 5415 l0 -5415 5415 0 5415 0 0 5415 0 5415 -5415 0 -5415 0 0
-5415z m10790 0 l0 -5375 -5375 0 -5375 0 0 5375 0 5375 5375 0 5375 0 0
-5375z"/>
<path d="M2700 7320 l0 -420 620 0 620 0 0 420 0 420 -620 0 -620 0 0 -420z"/>
<path d="M4670 5475 l0 -2265 620 0 620 0 0 1008 c0 1096 -2 1060 56 1174 32
62 119 156 184 198 86 55 153 73 275 73 91 1 120 -3 167 -22 78 -30 159 -106
198 -184 61 -124 60 -103 60 -1224 l0 -1023 620 0 621 0 -4 1178 c-4 1244 -3
1224 -52 1417 -110 435 -396 694 -837 759 -122 18 -346 21 -451 5 -172 -25
-382 -95 -522 -174 -83 -46 -202 -140 -244 -194 -18 -22 -41 -41 -52 -41 -19
0 -19 18 -19 790 l0 790 -620 0 -620 0 0 -2265z"/>
<path d="M2698 4773 l-3 -1738 -22 -66 c-26 -75 -85 -150 -142 -178 -62 -32
-136 -41 -326 -41 l-185 0 0 -369 0 -370 53 -15 c81 -23 291 -63 407 -78 136
-17 520 -16 625 0 542 87 780 358 825 942 6 74 10 847 10 1888 l0 1762 -620 0
-620 0 -2 -1737z"/>
</g>
</svg>
